<mxfile host="65bd71144e">
    <diagram id="cOnPpwW5EPasIOlU02vR" name="ページ1">
        <mxGraphModel dx="602" dy="433" grid="1" gridSize="10" guides="1" tooltips="1" connect="1" arrows="1" fold="1" page="1" pageScale="1" pageWidth="827" pageHeight="1169" math="1" shadow="0">
            <root>
                <mxCell id="0"/>
                <mxCell id="1" parent="0"/>
                <mxCell id="2" value="\(3\)" style="pointerEvents=1;verticalLabelPosition=middle;shadow=0;dashed=0;align=center;html=1;verticalAlign=middle;shape=mxgraph.electrical.resistors.resistor_1;rotation=90;labelPosition=center;horizontal=0;fillColor=none;" vertex="1" parent="1">
                    <mxGeometry x="70" y="120" width="100" height="20" as="geometry"/>
                </mxCell>
                <mxCell id="3" value="\(1\)" style="pointerEvents=1;verticalLabelPosition=middle;shadow=0;dashed=0;align=center;html=1;verticalAlign=middle;shape=mxgraph.electrical.resistors.resistor_1;rotation=30;labelPosition=center;fillColor=none;" vertex="1" parent="1">
                    <mxGeometry x="27" y="45" width="100" height="20" as="geometry"/>
                </mxCell>
                <mxCell id="18" value="\(2\)" style="pointerEvents=1;verticalLabelPosition=middle;shadow=0;dashed=0;align=center;html=1;verticalAlign=middle;shape=mxgraph.electrical.resistors.resistor_1;rotation=-30;labelPosition=center;fillColor=none;strokeColor=default;" vertex="1" parent="1">
                    <mxGeometry x="113" y="45" width="100" height="20" as="geometry"/>
                </mxCell>
                <mxCell id="20" value="" style="shape=waypoint;sketch=0;fillStyle=solid;size=6;pointerEvents=1;points=[];fillColor=none;resizable=0;rotatable=0;perimeter=centerPerimeter;snapToPoint=1;" vertex="1" parent="1">
                    <mxGeometry x="110" y="70" width="20" height="20" as="geometry"/>
                </mxCell>
                <mxCell id="21" value="\(12\)" style="pointerEvents=1;verticalLabelPosition=middle;shadow=0;dashed=0;align=center;html=1;verticalAlign=middle;shape=mxgraph.electrical.resistors.resistor_1;labelPosition=center;fillColor=none;" vertex="1" parent="1">
                    <mxGeometry x="250" y="45" width="100" height="20" as="geometry"/>
                </mxCell>
                <mxCell id="22" value="\(31\)" style="pointerEvents=1;verticalLabelPosition=middle;shadow=0;dashed=0;align=center;html=1;verticalAlign=middle;shape=mxgraph.electrical.resistors.resistor_1;rotation=60;fillColor=none;labelPosition=center;" vertex="1" parent="1">
                    <mxGeometry x="225" y="88" width="100" height="20" as="geometry"/>
                </mxCell>
                <mxCell id="23" value="\(23\)" style="pointerEvents=1;verticalLabelPosition=middle;shadow=0;dashed=0;align=center;html=1;verticalAlign=middle;shape=mxgraph.electrical.resistors.resistor_1;rotation=-60;fillColor=none;labelPosition=center;" vertex="1" parent="1">
                    <mxGeometry x="275" y="88" width="100" height="20" as="geometry"/>
                </mxCell>
            </root>
        </mxGraphModel>
    </diagram>
</mxfile>